<?xml version="1.0" encoding="UTF-8"?>
<svg width="800" height="400" xmlns="http://www.w3.org/2000/svg">
  <!-- Background -->
  <rect width="800" height="400" fill="#f8f9fa" />
  
  <!-- Title -->
  <text x="400" y="40" font-family="Arial" font-size="24" text-anchor="middle" font-weight="bold">MARA AI Integration Architecture</text>
  
  <!-- Boxes -->
  <!-- Prompts System -->
  <rect x="80" y="100" width="200" height="200" rx="10" fill="#e6f7ff" stroke="#1890ff" stroke-width="2" />
  <text x="180" y="130" font-family="Arial" font-size="18" text-anchor="middle" font-weight="bold">Prompts System</text>
  
  <!-- Components -->
  <rect x="110" y="150" width="140" height="30" rx="5" fill="#ffffff" stroke="#1890ff" stroke-width="1" />
  <text x="180" y="170" font-family="Arial" font-size="14" text-anchor="middle">index.js</text>
  
  <rect x="110" y="190" width="140" height="30" rx="5" fill="#ffffff" stroke="#1890ff" stroke-width="1" />
  <text x="180" y="210" font-family="Arial" font-size="14" text-anchor="middle">config.js</text>
  
  <rect x="110" y="230" width="140" height="30" rx="5" fill="#ffffff" stroke="#1890ff" stroke-width="1" />
  <text x="180" y="250" font-family="Arial" font-size="14" text-anchor="middle">reference-data.js</text>
  
  <rect x="110" y="270" width="140" height="20" rx="5" fill="#ffffff" stroke="#1890ff" stroke-width="1" />
  <text x="180" y="285" font-family="Arial" font-size="12" text-anchor="middle">prompt files</text>
  
  <!-- LLM Service -->
  <rect x="330" y="100" width="160" height="200" rx="10" fill="#f6ffed" stroke="#52c41a" stroke-width="2" />
  <text x="410" y="130" font-family="Arial" font-size="18" text-anchor="middle" font-weight="bold">LLM Service</text>
  
  <rect x="350" y="150" width="120" height="40" rx="5" fill="#ffffff" stroke="#52c41a" stroke-width="1" />
  <text x="410" y="175" font-family="Arial" font-size="14" text-anchor="middle">llm-service.js</text>
  
  <rect x="350" y="200" width="120" height="40" rx="5" fill="#ffffff" stroke="#52c41a" stroke-width="1" />
  <text x="410" y="225" font-family="Arial" font-size="14" text-anchor="middle">llm-processors.js</text>
  
  <rect x="350" y="250" width="120" height="40" rx="5" fill="#ffffff" stroke="#52c41a" stroke-width="1" />
  <text x="410" y="275" font-family="Arial" font-size="14" text-anchor="middle">prompt-tester.js</text>
  
  <!-- Implementation -->
  <rect x="540" y="100" width="180" height="200" rx="10" fill="#fff2e8" stroke="#fa8c16" stroke-width="2" />
  <text x="630" y="130" font-family="Arial" font-size="18" text-anchor="middle" font-weight="bold">Implementation</text>
  
  <rect x="560" y="150" width="140" height="30" rx="5" fill="#ffffff" stroke="#fa8c16" stroke-width="1" />
  <text x="630" y="170" font-family="Arial" font-size="14" text-anchor="middle">process-raw-data</text>
  
  <rect x="560" y="190" width="140" height="30" rx="5" fill="#ffffff" stroke="#fa8c16" stroke-width="1" />
  <text x="630" y="210" font-family="Arial" font-size="14" text-anchor="middle">get-weekly-report</text>
  
  <rect x="560" y="230" width="140" height="30" rx="5" fill="#ffffff" stroke="#fa8c16" stroke-width="1" />
  <text x="630" y="250" font-family="Arial" font-size="14" text-anchor="middle">send-flash-report</text>
  
  <!-- Arrows -->
  <defs>
    <marker id="arrowhead" markerWidth="10" markerHeight="7" refX="9" refY="3.5" orient="auto">
      <polygon points="0 0, 10 3.5, 0 7" fill="#666" />
    </marker>
  </defs>
  
  <!-- Prompts to LLM Service -->
  <line x1="280" y1="200" x2="330" y2="200" stroke="#666" stroke-width="2" marker-end="url(#arrowhead)" />
  
  <!-- LLM Service to Implementation -->
  <line x1="490" y1="200" x2="540" y2="200" stroke="#666" stroke-width="2" marker-end="url(#arrowhead)" />
  
  <!-- External API -->
  <rect x="330" y="340" width="160" height="40" rx="10" fill="#f9f0ff" stroke="#722ed1" stroke-width="2" />
  <text x="410" y="365" font-family="Arial" font-size="16" text-anchor="middle">Claude API</text>
  
  <!-- LLM Service to API -->
  <line x1="410" y1="300" x2="410" y2="340" stroke="#666" stroke-width="2" marker-end="url(#arrowhead)" />
  
  <!-- Legend -->
  <rect x="80" y="340" width="20" height="20" fill="#e6f7ff" stroke="#1890ff" stroke-width="1" />
  <text x="110" y="355" font-family="Arial" font-size="12" text-anchor="start">Prompts</text>
  
  <rect x="160" y="340" width="20" height="20" fill="#f6ffed" stroke="#52c41a" stroke-width="1" />
  <text x="190" y="355" font-family="Arial" font-size="12" text-anchor="start">LLM Services</text>
  
  <rect x="250" y="340" width="20" height="20" fill="#fff2e8" stroke="#fa8c16" stroke-width="1" />
  <text x="280" y="355" font-family="Arial" font-size="12" text-anchor="start">Implementation</text>
</svg>